<?xml version="1.0" standalone="no"?>
<!DOCTYPE svg PUBLIC "-//W3C//DTD SVG 20010904//EN"
 "http://www.w3.org/TR/2001/REC-SVG-20010904/DTD/svg10.dtd">
<svg version="1.0" xmlns="http://www.w3.org/2000/svg"
 width="512.000000pt" height="512.000000pt" viewBox="0 0 512.000000 512.000000"
 preserveAspectRatio="xMidYMid meet">

<g transform="translate(0.000000,512.000000) scale(0.100000,-0.100000)"
fill="#000000" stroke="none">
<path d="M2375 5114 c-498 -42 -950 -212 -1354 -511 -140 -104 -396 -357 -498
-494 -268 -359 -434 -758 -499 -1204 -25 -166 -25 -523 -1 -690 64 -438 228
-834 494 -1194 104 -140 357 -396 494 -498 359 -268 758 -434 1204 -499 166
-25 523 -25 690 -1 267 39 562 130 790 245 265 132 460 274 675 491 226 228
350 400 485 676 124 253 202 505 242 780 24 166 24 524 0 690 -64 438 -228
834 -494 1194 -104 140 -357 396 -494 498 -358 268 -765 437 -1199 498 -112
16 -434 27 -535 19z m848 -1864 c192 -49 293 -152 305 -311 9 -130 -51 -238
-170 -307 l-51 -30 56 -27 c162 -76 241 -225 207 -390 -34 -166 -155 -273
-365 -321 -88 -20 -332 -25 -517 -10 l-98 8 0 699 0 699 33 1 c17 1 82 5 142
9 171 12 367 4 458 -20z m-975 -527 c-4 -580 -5 -590 -61 -701 -27 -55 -104
-127 -164 -154 -59 -26 -210 -36 -280 -19 -56 15 -139 53 -172 81 l-23 20 42
70 c23 39 44 70 47 70 2 0 24 -14 49 -31 130 -89 277 -71 334 41 34 67 40 159
40 668 l0 492 96 0 95 0 -3 -537z"/>
<path d="M2803 3113 l-23 -4 0 -226 0 -225 178 4 c165 3 181 5 232 29 99 46
150 115 150 204 0 63 -20 105 -70 148 -69 58 -113 70 -290 73 -85 1 -165 0
-177 -3z"/>
<path d="M2780 2261 l0 -249 123 -7 c314 -18 476 66 477 247 0 72 -10 97 -60
152 -73 80 -173 105 -407 106 l-133 0 0 -249z"/>
</g>
</svg>
